<svg xmlns="http://www.w3.org/2000/svg" width="50" height="50" viewBox="0 0 192 192"><g fill="none" stroke-miterlimit="10" font-family="none" font-weight="none" font-size="none" text-anchor="none" style="mix-blend-mode:normal"><path d="M0 192V0h192v192z"/><path d="M111.36 17.4c-20.025 0-36.975 11.985-45.12 28.92-4.335-2.985-9.36-5.16-15-5.16-14.31 0-25.725 11.325-26.52 25.44C10.41 71.76 0 85.11 0 101.16c0 20.46 16.62 37.08 37.08 37.08h32.04a3.863 3.863 0 003.375-1.905c.69-1.2.69-2.67 0-3.87a3.863 3.863 0 00-3.375-1.905H37.08a29.304 29.304 0 01-29.4-29.4c0-13.575 9.15-25.005 21.6-28.44a3.838 3.838 0 002.76-3.84c-.015-.54 0-.81 0-.84 0-10.665 8.535-19.2 19.2-19.2 5.34 0 10.2 2.145 13.68 5.64a3.837 3.837 0 003.465 1.005 3.86 3.86 0 002.775-2.325c6.045-16.32 21.735-28.08 40.2-28.08 23.7 0 42.84 19.155 42.84 42.84 0 1.755-.135 3.48-.36 5.28a3.856 3.856 0 00.9 2.985 3.856 3.856 0 002.82 1.335h.24c14.685 0 26.52 11.835 26.52 26.52 0 14.685-11.835 26.52-26.52 26.52h-34.92a3.863 3.863 0 00-3.375 1.905c-.69 1.2-.69 2.67 0 3.87a3.863 3.863 0 003.375 1.905h34.92c18.84 0 34.2-15.36 34.2-34.2 0-17.475-13.41-31.365-30.36-33.36.06-.93.24-1.8.24-2.76 0-27.84-22.68-50.52-50.52-50.52zM96 82.92l-2.76 2.64-19.2 19.2a3.893 3.893 0 000 5.52 3.893 3.893 0 005.52 0l12.6-12.6v67.44a3.863 3.863 0 001.905 3.375c1.2.69 2.67.69 3.87 0a3.863 3.863 0 001.905-3.375V97.68l12.6 12.6a3.893 3.893 0 005.52 0 3.893 3.893 0 000-5.52l-19.2-19.2z" fill="#1e2d40"/></g></svg>